<?xml version="1.0" encoding="UTF-8"?>
<svg id="Vrstva_1" xmlns="http://www.w3.org/2000/svg" width="984.41" height="279.98" xmlns:xlink="http://www.w3.org/1999/xlink" version="1.1" viewBox="0 0 984.41 279.98">
  <!-- Generator: Adobe Illustrator 30.3.0, SVG Export Plug-In . SVG Version: 2.1.3 Build 182)  -->
  <defs>
    <style>
      .st0, .st1, .st2 {
        fill: none;
      }

      .st3 {
        clip-path: url(#clippath-11);
      }

      .st4 {
        clip-path: url(#clippath-10);
      }

      .st5 {
        clip-path: url(#clippath-1);
      }

      .st6 {
        clip-path: url(#clippath-3);
      }

      .st7 {
        clip-path: url(#clippath-4);
      }

      .st8 {
        clip-path: url(#clippath-2);
      }

      .st9 {
        clip-path: url(#clippath-7);
      }

      .st10 {
        clip-path: url(#clippath-6);
      }

      .st11 {
        clip-path: url(#clippath-9);
      }

      .st12 {
        clip-path: url(#clippath-8);
      }

      .st13 {
        clip-path: url(#clippath-5);
      }

      .st1 {
        stroke: #009fe3;
        stroke-width: 1.2px;
      }

      .st2 {
        stroke: #e6007e;
      }

      .st14 {
        fill: #214571;
      }

      .st15 {
        opacity: .1;
      }

      .st16 {
        fill: #45e7a3;
      }

      .st17 {
        fill: #e6007e;
      }

      .st18 {
        fill: #eff4fa;
      }

      .st19 {
        fill: #30c487;
      }

      .st20 {
        fill: #009fe3;
      }

      .st21 {
        clip-path: url(#clippath);
      }
    </style>
    <clipPath id="clippath">
      <rect class="st0" x="0" y="800.02" width="984.41" height="279.98"/>
    </clipPath>
    <clipPath id="clippath-1">
      <rect class="st0" x="0" y="800.02" width="984.41" height="279.98"/>
    </clipPath>
    <clipPath id="clippath-2">
      <rect class="st0" x="-8.5" y="772.52" width="1001.41" height="307.98"/>
    </clipPath>
    <clipPath id="clippath-3">
      <rect class="st0" x="0" y="800.02" width="984.41" height="279.98"/>
    </clipPath>
    <clipPath id="clippath-4">
      <rect class="st0" x="0" y="800.02" width="984.41" height="279.98"/>
    </clipPath>
    <clipPath id="clippath-5">
      <rect class="st0" x="0" y="800.02" width="984.41" height="279.98"/>
    </clipPath>
    <clipPath id="clippath-6">
      <rect class="st0" x="0" y="800.02" width="984.41" height="279.98"/>
    </clipPath>
    <clipPath id="clippath-7">
      <rect class="st0" x="0" y="800.02" width="984.41" height="279.98"/>
    </clipPath>
    <clipPath id="clippath-8">
      <rect class="st0" x="0" y="800.02" width="984.41" height="279.98"/>
    </clipPath>
    <clipPath id="clippath-9">
      <rect class="st0" x="0" y="800.02" width="984.41" height="279.98"/>
    </clipPath>
    <clipPath id="clippath-10">
      <rect class="st0" x="0" y="800.02" width="984.41" height="279.98"/>
    </clipPath>
    <clipPath id="clippath-11">
      <rect class="st0" x="0" y="800.02" width="984.41" height="279.98"/>
    </clipPath>
  </defs>
  <g>
    <g>
      <path class="st19" d="M158.9,108.69c2.04-2.35,4.14-4.6,6.28-6.76-29.11-29.41-65.47-40.37-84.02-24.25-19.92,17.3-11.8,59.24,18.16,93.67,13.54,15.56,29.21,26.93,44.17,33.11-.95-.64-1.87-1.34-2.75-2.1-19.92-17.3-11.78-59.23,18.17-93.66"/>
      <path class="st16" d="M249.2,77.68c-18.56-16.12-54.92-5.16-84.02,24.25-2.14,2.16-4.22,4.4-6.28,6.76-29.95,34.43-38.09,76.37-18.17,93.67.88.76,1.79,1.45,2.75,2.1,7.54,3.12,14.89,4.91,21.7,5.27,6.8-.36,14.16-2.16,21.7-5.27,14.95-6.18,30.64-17.54,44.17-33.11,29.95-34.43,38.09-76.37,18.17-93.66"/>
    </g>
    <polygon class="st14" points="292.76 177.04 309.09 177.04 309.09 145.99 337.18 145.99 337.18 132.84 309.09 132.84 309.09 116.52 346.61 116.52 346.61 102.85 292.76 102.85 292.76 177.04"/>
    <polygon class="st14" points="430.02 177.04 483.87 177.04 483.87 163.37 446.34 163.37 446.34 145.99 474.43 145.99 474.43 132.84 446.34 132.84 446.34 116.52 483.87 116.52 483.87 102.85 430.02 102.85 430.02 177.04"/>
    <polygon class="st14" points="496.48 177.04 550.32 177.04 550.32 163.37 512.8 163.37 512.8 145.99 540.89 145.99 540.89 132.84 512.8 132.84 512.8 116.52 550.32 116.52 550.32 102.85 496.48 102.85 496.48 177.04"/>
    <path class="st14" d="M374.06,116.52h15.26c3.74,0,6.52.88,8.32,2.65,1.8,1.77,2.7,4.17,2.7,7.21,0,2.05-.41,3.84-1.22,5.35-.81,1.52-2.03,2.67-3.66,3.44-1.63.78-3.71,1.17-6.25,1.17h-15.16v-19.82ZM402.25,148c3.39-1.34,6.18-3.16,8.37-5.46,2.19-2.29,3.82-4.84,4.88-7.63,1.06-2.79,1.59-5.64,1.59-8.53,0-4.24-1.01-8.14-3.02-11.71-2.02-3.57-5.02-6.43-9.01-8.59-3.99-2.15-8.99-3.23-15-3.23h-32.33v74.2h16.32v-27.03h10.51l15.67,27.03h18.23l-17.44-28.64c.41-.14.84-.25,1.23-.4"/>
    <polygon class="st14" points="750.15 102.85 732.67 135.28 715.07 102.85 696.42 102.85 724.4 151.92 724.4 177.04 740.72 177.04 740.72 151.82 768.81 102.85 750.15 102.85"/>
    <g>
      <path class="st14" d="M821.56,152.29c-1.84,3.57-4.35,6.38-7.53,8.43-3.18,2.05-6.89,3.07-11.13,3.07s-7.86-1.02-11.08-3.07c-3.22-2.05-5.72-4.86-7.53-8.43-1.8-3.57-2.7-7.68-2.7-12.35s.9-8.89,2.7-12.45c1.8-3.57,4.31-6.36,7.53-8.37,3.21-2.01,6.91-3.02,11.08-3.02s7.95,1.01,11.13,3.02c3.18,2.01,5.69,4.81,7.53,8.37,1.84,3.57,2.76,7.72,2.76,12.45s-.92,8.78-2.76,12.35M829.83,112.65c-3.46-3.36-7.49-5.95-12.08-7.79-4.59-1.84-9.54-2.76-14.84-2.76s-10.14.92-14.73,2.76c-4.59,1.84-8.62,4.43-12.08,7.79-3.46,3.36-6.18,7.35-8.16,11.98-1.98,4.63-2.97,9.74-2.97,15.32s.99,10.69,2.97,15.32c1.98,4.63,4.7,8.62,8.16,11.98,3.46,3.36,7.49,5.95,12.08,7.79,4.59,1.84,9.5,2.76,14.73,2.76s10.24-.92,14.84-2.76c4.59-1.84,8.62-4.43,12.08-7.79,3.46-3.35,6.18-7.35,8.16-11.98,1.98-4.63,2.97-9.73,2.97-15.32s-.99-10.69-2.97-15.32c-1.98-4.63-4.7-8.62-8.16-11.98"/>
      <path class="st14" d="M584.06,121.29c0-2.61.67-4.5,2.01-5.67,1.34-1.17,3.43-1.54,6.25-1.11v-13.78c-5.09-.64-9.4-.32-12.93.95-3.53,1.27-6.24,3.41-8.11,6.41-1.87,3-2.81,7.01-2.81,12.03v3.92h-6.04v13.67h6.04v39.32h15.58v-39.32h8.8v-13.67h-8.8v-2.76Z"/>
      <path class="st14" d="M897.74,102.85v46.32c0,3.18-.64,5.87-1.91,8.06-1.27,2.19-3.06,3.83-5.35,4.93-2.3,1.1-4.97,1.64-8,1.64s-5.48-.55-7.74-1.64c-2.26-1.09-4.03-2.74-5.3-4.93-1.27-2.19-1.91-4.88-1.91-8.06v-46.32h-16.43v45.05c0,6.72,1.43,12.28,4.29,16.69,2.86,4.42,6.64,7.72,11.34,9.91,4.7,2.19,9.87,3.29,15.53,3.29,4.1,0,8.07-.62,11.92-1.86,3.85-1.24,7.28-3.09,10.28-5.57,3-2.47,5.37-5.56,7.1-9.27,1.73-3.71,2.6-8.11,2.6-13.2v-45.05h-16.43Z"/>
      <path class="st14" d="M687.3,123.99c-2.33.46-4.42,1.29-6.25,2.49-1.84,1.2-3.43,2.72-4.77,4.56l-1.06-7h-14.1v53h15.48v-23c0-3.53.58-6.41,1.75-8.64,1.17-2.23,2.7-3.92,4.61-5.09s3.92-1.87,6.04-2.12c2.12-.25,4.1-.09,5.93.48v-14.63c-2.76-.49-5.3-.51-7.63-.05"/>
      <path class="st14" d="M633.93,157.91c-1.1,1.94-2.47,3.41-4.13,4.4-1.66.99-3.41,1.48-5.25,1.48s-3.57-.49-5.19-1.48c-1.63-.99-2.88-2.47-3.76-4.45-.89-1.98-1.33-4.42-1.33-7.31s.46-5.42,1.38-7.37c.92-1.94,2.19-3.41,3.82-4.4,1.62-.99,3.39-1.49,5.3-1.49s3.67.5,5.3,1.49c1.62.99,2.95,2.47,3.98,4.45,1.02,1.98,1.54,4.42,1.54,7.31s-.55,5.42-1.64,7.37M638.76,126.64c-4.1-2.23-8.76-3.34-13.99-3.34s-9.79,1.11-13.89,3.34c-4.1,2.22-7.35,5.37-9.75,9.43-2.4,4.06-3.6,8.89-3.6,14.47s1.17,10.42,3.5,14.52c2.33,4.1,5.55,7.24,9.65,9.43,4.1,2.19,8.73,3.29,13.89,3.29s9.82-1.1,13.99-3.29c4.17-2.19,7.47-5.33,9.91-9.43,2.44-4.1,3.66-8.94,3.66-14.52s-1.2-10.4-3.6-14.47c-2.41-4.06-5.66-7.21-9.75-9.43"/>
    </g>
  </g>
  <g class="st21">
    <g class="st5">
      <g class="st15">
        <g class="st8">
          <rect class="st17" x=".5" y="800.52" width="983.41" height="278.98"/>
        </g>
      </g>
    </g>
    <rect class="st18" x="70.24" y="870.27" width="843.92" height="139.49"/>
    <g class="st6">
      <path class="st19" d="M158.9,908.72c2.04-2.35,4.14-4.6,6.28-6.76-29.11-29.41-65.47-40.37-84.02-24.25-19.92,17.3-11.8,59.24,18.16,93.67,13.54,15.56,29.21,26.93,44.17,33.11-.95-.64-1.87-1.34-2.75-2.1-19.92-17.3-11.78-59.23,18.17-93.66"/>
      <path class="st16" d="M249.2,877.71c-18.56-16.12-54.92-5.16-84.02,24.25-2.14,2.16-4.22,4.4-6.28,6.76-29.95,34.43-38.09,76.37-18.17,93.67.88.76,1.79,1.45,2.75,2.1,7.54,3.12,14.89,4.91,21.7,5.27,6.8-.36,14.16-2.16,21.7-5.27,14.95-6.18,30.64-17.54,44.17-33.11,29.95-34.43,38.09-76.37,18.17-93.66"/>
    </g>
    <polygon class="st14" points="292.76 977.07 309.09 977.07 309.09 946.01 337.17 946.01 337.17 932.87 309.09 932.87 309.09 916.54 346.61 916.54 346.61 902.87 292.76 902.87 292.76 977.07"/>
    <polygon class="st14" points="430.02 977.07 483.87 977.07 483.87 963.39 446.34 963.39 446.34 946.01 474.43 946.01 474.43 932.87 446.34 932.87 446.34 916.54 483.87 916.54 483.87 902.87 430.02 902.87 430.02 977.07"/>
    <polygon class="st14" points="496.48 977.07 550.32 977.07 550.32 963.39 512.8 963.39 512.8 946.01 540.89 946.01 540.89 932.87 512.8 932.87 512.8 916.54 550.32 916.54 550.32 902.87 496.48 902.87 496.48 977.07"/>
    <g class="st7">
      <path class="st14" d="M374.06,916.54h15.26c3.74,0,6.52.89,8.32,2.65,1.8,1.77,2.7,4.17,2.7,7.21,0,2.05-.41,3.84-1.22,5.35-.81,1.52-2.03,2.67-3.66,3.45-1.63.78-3.71,1.16-6.25,1.16h-15.16v-19.82ZM402.25,948.02c3.39-1.34,6.18-3.16,8.37-5.46,2.19-2.29,3.82-4.84,4.88-7.63,1.06-2.79,1.59-5.64,1.59-8.53,0-4.24-1.01-8.14-3.02-11.71-2.02-3.57-5.02-6.43-9.01-8.59-3.99-2.15-8.99-3.23-15-3.23h-32.33v74.2h16.32v-27.03h10.51l15.67,27.03h18.23l-17.44-28.64c.41-.14.84-.25,1.23-.4"/>
    </g>
    <polygon class="st14" points="750.15 902.87 732.67 935.3 715.07 902.87 696.42 902.87 724.4 951.95 724.4 977.07 740.72 977.07 740.72 951.84 768.81 902.87 750.15 902.87"/>
    <g class="st13">
      <path class="st14" d="M821.56,952.32c-1.84,3.57-4.35,6.38-7.53,8.43-3.18,2.05-6.89,3.07-11.13,3.07s-7.86-1.02-11.08-3.07c-3.22-2.05-5.72-4.86-7.53-8.43-1.8-3.57-2.7-7.68-2.7-12.35s.9-8.88,2.7-12.45c1.8-3.57,4.31-6.36,7.53-8.37,3.21-2.01,6.91-3.02,11.08-3.02s7.95,1.01,11.13,3.02c3.18,2.01,5.69,4.81,7.53,8.37,1.84,3.57,2.76,7.72,2.76,12.45s-.92,8.78-2.76,12.35M829.83,912.68c-3.46-3.36-7.49-5.95-12.08-7.79-4.59-1.84-9.54-2.76-14.84-2.76s-10.14.92-14.73,2.76c-4.59,1.84-8.62,4.43-12.08,7.79-3.46,3.36-6.18,7.35-8.16,11.98-1.98,4.63-2.97,9.74-2.97,15.32s.99,10.69,2.97,15.32c1.98,4.63,4.7,8.62,8.16,11.98,3.46,3.36,7.49,5.95,12.08,7.79,4.59,1.84,9.5,2.76,14.73,2.76s10.24-.92,14.84-2.76c4.59-1.84,8.62-4.43,12.08-7.79,3.46-3.35,6.18-7.35,8.16-11.98,1.98-4.63,2.97-9.73,2.97-15.32s-.99-10.69-2.97-15.32c-1.98-4.63-4.7-8.62-8.16-11.98"/>
      <path class="st14" d="M584.06,921.31c0-2.61.67-4.51,2.01-5.67,1.34-1.17,3.43-1.54,6.25-1.11v-13.78c-5.09-.64-9.4-.32-12.93.95-3.53,1.27-6.24,3.41-8.11,6.41-1.87,3.01-2.81,7.01-2.81,12.03v3.92h-6.04v13.67h6.04v39.32h15.58v-39.32h8.8v-13.67h-8.8v-2.76Z"/>
      <path class="st14" d="M897.74,902.87v46.32c0,3.18-.64,5.87-1.91,8.06-1.27,2.19-3.06,3.83-5.35,4.93-2.3,1.1-4.97,1.64-8,1.64s-5.48-.55-7.74-1.64c-2.26-1.09-4.03-2.74-5.3-4.93-1.27-2.19-1.91-4.88-1.91-8.06v-46.32h-16.43v45.05c0,6.72,1.43,12.28,4.29,16.7,2.86,4.42,6.64,7.72,11.34,9.91,4.7,2.19,9.87,3.29,15.53,3.29,4.1,0,8.07-.62,11.92-1.86,3.85-1.24,7.28-3.09,10.28-5.57,3-2.47,5.37-5.56,7.1-9.27,1.73-3.71,2.6-8.11,2.6-13.2v-45.05h-16.43Z"/>
      <path class="st14" d="M687.3,924.02c-2.33.46-4.42,1.29-6.25,2.49-1.84,1.2-3.43,2.72-4.77,4.56l-1.06-7h-14.1v53h15.48v-23c0-3.53.58-6.41,1.75-8.64,1.17-2.23,2.7-3.92,4.61-5.09s3.92-1.87,6.04-2.12c2.12-.25,4.1-.09,5.93.48v-14.63c-2.76-.49-5.3-.51-7.63-.05"/>
      <path class="st14" d="M633.93,957.93c-1.1,1.94-2.47,3.41-4.13,4.4-1.66.99-3.41,1.48-5.25,1.48s-3.57-.49-5.19-1.48c-1.63-.99-2.88-2.47-3.76-4.45-.89-1.98-1.33-4.41-1.33-7.31s.46-5.42,1.38-7.37c.92-1.94,2.19-3.41,3.82-4.4,1.62-.99,3.39-1.49,5.3-1.49s3.67.5,5.3,1.49c1.62.99,2.95,2.48,3.98,4.45,1.02,1.98,1.54,4.42,1.54,7.31s-.55,5.42-1.64,7.37M638.76,926.67c-4.1-2.23-8.76-3.34-13.99-3.34s-9.79,1.11-13.89,3.34c-4.1,2.23-7.35,5.37-9.75,9.43-2.4,4.06-3.6,8.89-3.6,14.47s1.17,10.42,3.5,14.52c2.33,4.1,5.55,7.24,9.65,9.43,4.1,2.19,8.73,3.29,13.89,3.29s9.82-1.1,13.99-3.29c4.17-2.19,7.47-5.33,9.91-9.43,2.44-4.1,3.66-8.94,3.66-14.52s-1.2-10.4-3.6-14.47c-2.4-4.06-5.65-7.21-9.75-9.43"/>
      <rect class="st2" x=".5" y="800.52" width="983.41" height="278.98"/>
    </g>
    <rect class="st2" x="70.24" y="870.27" width="843.92" height="139.49"/>
    <g>
      <path class="st20" d="M743.72,836.16c0-.99.07-1.9.21-2.74.14-.84.38-1.56.73-2.18.35-.62.83-1.09,1.45-1.43.62-.34,1.41-.51,2.35-.51s1.73.17,2.34.51c.61.34,1.09.82,1.44,1.43.35.61.59,1.34.73,2.18.14.84.21,1.75.21,2.74s-.07,1.92-.21,2.75c-.14.84-.38,1.56-.73,2.18-.35.61-.83,1.09-1.44,1.42-.62.33-1.4.5-2.34.5s-1.73-.17-2.35-.5c-.62-.33-1.1-.81-1.45-1.42-.35-.62-.59-1.34-.73-2.18-.14-.84-.21-1.76-.21-2.75ZM751.63,836.16c0-.76-.04-1.46-.11-2.12s-.21-1.24-.41-1.75-.52-.9-.94-1.19c-.42-.29-.99-.43-1.71-.43s-1.27.14-1.7.43-.75.68-.96,1.19-.35,1.09-.42,1.75-.11,1.37-.11,2.12.04,1.5.11,2.17c.07.67.21,1.25.42,1.75.21.5.53.89.96,1.16s1,.41,1.7.41,1.29-.14,1.71-.41c.42-.28.74-.66.94-1.16.21-.5.34-1.08.41-1.75.07-.67.11-1.39.11-2.17Z"/>
      <path class="st20" d="M756.05,840.55h1.69l-2.07,5.11h-1.04l1.42-5.11Z"/>
      <path class="st20" d="M768.63,829.43v1.34h-6.8v4.47c.29-.41.72-.74,1.29-1,.56-.26,1.2-.38,1.9-.38.82,0,1.51.13,2.07.4.56.27,1.02.62,1.37,1.06.35.44.61.91.77,1.43s.24,1.03.24,1.53c0,.84-.18,1.63-.53,2.34-.35.72-.88,1.29-1.57,1.73-.7.44-1.56.65-2.6.65-.9,0-1.68-.16-2.35-.48-.67-.32-1.21-.76-1.61-1.33s-.66-1.23-.78-1.99h1.5c.18.79.55,1.4,1.12,1.81s1.28.62,2.12.62c.72,0,1.31-.14,1.78-.42.47-.28.81-.67,1.04-1.17s.34-1.08.34-1.73c0-.99-.27-1.75-.81-2.28s-1.31-.81-2.3-.81c-.73,0-1.36.16-1.89.48-.53.32-.92.77-1.18,1.34h-1.44v-7.62h8.33Z"/>
      <path class="st20" d="M770.66,833.28h1.65l2.46,3.67,2.46-3.67h1.67l-3.32,4.78,3.32,4.82h-1.67l-2.46-3.71-2.46,3.71h-1.65l3.32-4.82-3.32-4.78Z"/>
    </g>
    <g class="st10">
      <line class="st1" x1="735.61" y1="801.41" x2="735.61" y2="869.39"/>
      <polyline class="st1" points="731.68 805.63 735.61 801.41 739.53 805.63"/>
    </g>
    <polyline class="st1" points="739.53 865.17 735.61 869.39 731.68 865.17"/>
    <g>
      <path class="st20" d="M743.72,1045.39c0-.99.07-1.9.21-2.74.14-.84.38-1.56.73-2.18.35-.62.83-1.09,1.45-1.43.62-.34,1.41-.51,2.35-.51s1.73.17,2.34.51c.61.34,1.09.82,1.44,1.43.35.61.59,1.34.73,2.18.14.84.21,1.75.21,2.74s-.07,1.92-.21,2.75c-.14.84-.38,1.56-.73,2.18-.35.61-.83,1.09-1.44,1.42-.62.33-1.4.5-2.34.5s-1.73-.17-2.35-.5c-.62-.33-1.1-.81-1.45-1.42-.35-.62-.59-1.34-.73-2.18-.14-.84-.21-1.76-.21-2.75ZM751.63,1045.39c0-.76-.04-1.46-.11-2.12s-.21-1.24-.41-1.75-.52-.9-.94-1.19c-.42-.29-.99-.43-1.71-.43s-1.27.14-1.7.43-.75.68-.96,1.19-.35,1.09-.42,1.75-.11,1.37-.11,2.12.04,1.5.11,2.17c.07.67.21,1.25.42,1.75.21.5.53.89.96,1.16s1,.41,1.7.41,1.29-.14,1.71-.41c.42-.28.74-.66.94-1.16.21-.5.34-1.08.41-1.75.07-.67.11-1.39.11-2.17Z"/>
      <path class="st20" d="M756.05,1049.78h1.69l-2.07,5.11h-1.04l1.42-5.11Z"/>
      <path class="st20" d="M768.63,1038.67v1.34h-6.8v4.47c.29-.41.72-.74,1.29-1,.56-.26,1.2-.38,1.9-.38.82,0,1.51.13,2.07.4.56.27,1.02.62,1.37,1.06.35.44.61.91.77,1.43s.24,1.03.24,1.53c0,.84-.18,1.63-.53,2.34-.35.72-.88,1.29-1.57,1.73-.7.44-1.56.65-2.6.65-.9,0-1.68-.16-2.35-.48-.67-.32-1.21-.76-1.61-1.33s-.66-1.23-.78-1.99h1.5c.18.79.55,1.4,1.12,1.81s1.28.62,2.12.62c.72,0,1.31-.14,1.78-.42.47-.28.81-.67,1.04-1.17s.34-1.08.34-1.73c0-.99-.27-1.75-.81-2.28s-1.31-.81-2.3-.81c-.73,0-1.36.16-1.89.48-.53.32-.92.77-1.18,1.34h-1.44v-7.62h8.33Z"/>
      <path class="st20" d="M770.66,1042.51h1.65l2.46,3.67,2.46-3.67h1.67l-3.32,4.78,3.32,4.82h-1.67l-2.46-3.71-2.46,3.71h-1.65l3.32-4.82-3.32-4.78Z"/>
    </g>
    <g class="st9">
      <line class="st1" x1="735.61" y1="1010.64" x2="735.61" y2="1078.62"/>
    </g>
    <polyline class="st1" points="731.68 1014.86 735.61 1010.64 739.53 1014.86"/>
    <g class="st12">
      <polyline class="st1" points="739.53 1074.4 735.61 1078.62 731.68 1074.4"/>
    </g>
    <g>
      <path class="st20" d="M16.52,928.24c0-.99.07-1.9.21-2.74.14-.84.38-1.56.73-2.18.35-.62.83-1.09,1.45-1.43.62-.34,1.4-.51,2.35-.51s1.73.17,2.34.51c.61.34,1.09.82,1.44,1.43.35.61.59,1.34.73,2.18.14.84.21,1.75.21,2.74s-.07,1.92-.21,2.75c-.14.84-.38,1.56-.73,2.18-.35.61-.83,1.09-1.44,1.42-.61.33-1.4.5-2.34.5s-1.73-.17-2.35-.5c-.62-.33-1.1-.81-1.45-1.42-.35-.62-.59-1.34-.73-2.18-.14-.84-.21-1.76-.21-2.75ZM24.43,928.24c0-.76-.04-1.46-.11-2.12s-.21-1.24-.41-1.75c-.21-.51-.52-.9-.94-1.19s-.99-.43-1.71-.43-1.27.14-1.7.43-.75.68-.96,1.19c-.21.51-.35,1.09-.42,1.75s-.11,1.37-.11,2.12.04,1.5.11,2.17c.07.67.21,1.25.42,1.75.21.5.53.89.96,1.16s1,.41,1.7.41,1.29-.14,1.71-.41.74-.66.94-1.16c.2-.5.34-1.08.41-1.75.07-.67.11-1.39.11-2.17Z"/>
      <path class="st20" d="M28.84,932.64h1.69l-2.07,5.11h-1.04l1.42-5.11Z"/>
      <path class="st20" d="M41.42,921.52v1.34h-6.8v4.47c.29-.41.72-.74,1.29-1,.56-.26,1.2-.38,1.9-.38.82,0,1.51.13,2.07.4.56.27,1.02.62,1.37,1.06.35.44.61.91.77,1.43.16.52.24,1.03.24,1.53,0,.84-.18,1.63-.53,2.34-.35.72-.88,1.29-1.57,1.73-.7.44-1.56.65-2.6.65-.9,0-1.68-.16-2.35-.48-.67-.32-1.21-.76-1.61-1.33-.4-.57-.66-1.23-.78-1.99h1.5c.18.79.55,1.4,1.12,1.81s1.28.62,2.12.62c.72,0,1.31-.14,1.78-.42.47-.28.81-.67,1.04-1.17.22-.5.34-1.08.34-1.73,0-.99-.27-1.75-.81-2.28-.54-.54-1.31-.81-2.3-.81-.73,0-1.36.16-1.89.48-.53.32-.92.77-1.18,1.34h-1.44v-7.62h8.33Z"/>
      <path class="st20" d="M43.45,925.37h1.65l2.46,3.67,2.46-3.67h1.67l-3.32,4.78,3.32,4.82h-1.67l-2.46-3.71-2.46,3.71h-1.65l3.32-4.82-3.32-4.78Z"/>
    </g>
    <g class="st11">
      <line class="st1" x1="1.38" y1="946.81" x2="69.36" y2="946.81"/>
      <polyline class="st1" points="5.6 950.74 1.38 946.81 5.6 942.89"/>
    </g>
    <polyline class="st1" points="65.14 942.89 69.36 946.81 65.14 950.74"/>
    <g>
      <path class="st20" d="M930.18,928.24c0-.99.07-1.9.21-2.74.14-.84.38-1.56.73-2.18.34-.62.83-1.09,1.45-1.43s1.4-.51,2.35-.51,1.73.17,2.34.51,1.09.82,1.44,1.43c.34.61.59,1.34.73,2.18.14.84.21,1.75.21,2.74s-.07,1.92-.21,2.75c-.14.84-.38,1.56-.73,2.18-.35.61-.83,1.09-1.44,1.42-.61.33-1.4.5-2.34.5s-1.73-.17-2.35-.5c-.62-.33-1.1-.81-1.45-1.42-.35-.62-.59-1.34-.73-2.18-.14-.84-.21-1.76-.21-2.75ZM938.09,928.24c0-.76-.04-1.46-.11-2.12s-.21-1.24-.41-1.75c-.21-.51-.52-.9-.94-1.19-.42-.29-.99-.43-1.71-.43s-1.27.14-1.7.43-.75.68-.96,1.19c-.21.51-.35,1.09-.42,1.75s-.11,1.37-.11,2.12.04,1.5.11,2.17c.07.67.21,1.25.42,1.75.21.5.53.89.96,1.16s1,.41,1.7.41,1.29-.14,1.71-.41c.42-.28.74-.66.94-1.16.2-.5.34-1.08.41-1.75.07-.67.11-1.39.11-2.17Z"/>
      <path class="st20" d="M942.51,932.64h1.69l-2.07,5.11h-1.04l1.42-5.11Z"/>
      <path class="st20" d="M955.09,921.52v1.34h-6.8v4.47c.29-.41.72-.74,1.29-1,.56-.26,1.2-.38,1.9-.38.82,0,1.51.13,2.07.4s1.02.62,1.37,1.06c.35.44.61.91.77,1.43.16.52.24,1.03.24,1.53,0,.84-.18,1.63-.53,2.34-.35.72-.88,1.29-1.58,1.73-.7.44-1.56.65-2.6.65-.9,0-1.68-.16-2.35-.48-.67-.32-1.21-.76-1.61-1.33-.4-.57-.66-1.23-.78-1.99h1.5c.18.79.55,1.4,1.12,1.81s1.28.62,2.12.62c.72,0,1.31-.14,1.78-.42.47-.28.81-.67,1.04-1.17.22-.5.34-1.08.34-1.73,0-.99-.27-1.75-.81-2.28-.54-.54-1.31-.81-2.3-.81-.73,0-1.36.16-1.89.48-.53.32-.92.77-1.18,1.34h-1.44v-7.62h8.33Z"/>
      <path class="st20" d="M957.12,925.37h1.65l2.46,3.67,2.46-3.67h1.67l-3.32,4.78,3.32,4.82h-1.67l-2.46-3.71-2.46,3.71h-1.65l3.32-4.82-3.32-4.78Z"/>
    </g>
    <g class="st4">
      <line class="st1" x1="915.05" y1="946.81" x2="983.03" y2="946.81"/>
    </g>
    <polyline class="st1" points="919.27 950.74 915.05 946.81 919.27 942.89"/>
    <g class="st3">
      <polyline class="st1" points="978.81 942.89 983.03 946.81 978.81 950.74"/>
    </g>
  </g>
  <rect class="st0" width="984.41" height="279.98"/>
</svg>