<svg id="Vrstva_1" xmlns="http://www.w3.org/2000/svg" xmlns:xlink="http://www.w3.org/1999/xlink" version="1.1" viewBox="0 0 984.41 279.98">
  <!-- Generator: Adobe Illustrator 30.3.0, SVG Export Plug-In . SVG Version: 2.1.3 Build 182)  -->
  <defs>
    <style>
      .st0, .st1, .st2 {
        fill: none;
      }

      .st3 {
        clip-path: url(#clippath-11);
      }

      .st4 {
        clip-path: url(#clippath-10);
      }

      .st5 {
        clip-path: url(#clippath-1);
      }

      .st6 {
        clip-path: url(#clippath-3);
      }

      .st7 {
        clip-path: url(#clippath-4);
      }

      .st8 {
        clip-path: url(#clippath-2);
      }

      .st9 {
        clip-path: url(#clippath-7);
      }

      .st10 {
        clip-path: url(#clippath-6);
      }

      .st11 {
        clip-path: url(#clippath-9);
      }

      .st12 {
        clip-path: url(#clippath-8);
      }

      .st13 {
        clip-path: url(#clippath-5);
      }

      .st1 {
        stroke: #009fe3;
        stroke-width: 1.2px;
      }

      .st2 {
        stroke: #e6007e;
      }

      .st14 {
        fill: #214571;
      }

      .st15 {
        opacity: .1;
      }

      .st16 {
        fill: #45e7a3;
      }

      .st17 {
        fill: #e6007e;
      }

      .st18 {
        fill: transparent;
      }

      .st19 {
        fill: #30c487;
      }

      .st20 {
        fill: #009fe3;
      }

      .st21 {
        clip-path: url(#clippath);
      }
    </style>
    <clipPath id="clippath">
      <rect class="st0" x="0" y="800.02"/>
    </clipPath>
    <clipPath id="clippath-1">
      <rect class="st0" x="0" y="800.02"/>
    </clipPath>
    <clipPath id="clippath-2">
      <rect class="st0" x="-8.5" y="772.52" width="1001.41" height="307.98"/>
    </clipPath>
    <clipPath id="clippath-3">
      <rect class="st0" x="0" y="800.02"/>
    </clipPath>
    <clipPath id="clippath-4">
      <rect class="st0" x="0" y="800.02"/>
    </clipPath>
    <clipPath id="clippath-5">
      <rect class="st0" x="0" y="800.02"/>
    </clipPath>
    <clipPath id="clippath-6">
      <rect class="st0" x="0" y="800.02"/>
    </clipPath>
    <clipPath id="clippath-7">
      <rect class="st0" x="0" y="800.02"/>
    </clipPath>
    <clipPath id="clippath-8">
      <rect class="st0" x="0" y="800.02"/>
    </clipPath>
    <clipPath id="clippath-9">
      <rect class="st0" x="0" y="800.02"/>
    </clipPath>
    <clipPath id="clippath-10">
      <rect class="st0" x="0" y="800.02"/>
    </clipPath>
    <clipPath id="clippath-11">
      <rect class="st0" x="0" y="800.02"/>
    </clipPath>
  </defs>
  <g>
    <g>
      <path class="st19" d="M158.9,108.69c2.04-2.35,4.14-4.6,6.28-6.76-29.11-29.41-65.47-40.37-84.02-24.25-19.92,17.3-11.8,59.24,18.16,93.67,13.54,15.56,29.21,26.93,44.17,33.11-.95-.64-1.87-1.34-2.75-2.1-19.92-17.3-11.78-59.23,18.17-93.66"/>
      <path class="st16" d="M249.2,77.68c-18.56-16.12-54.92-5.16-84.02,24.25-2.14,2.16-4.22,4.4-6.28,6.76-29.95,34.43-38.09,76.37-18.17,93.67.88.76,1.79,1.45,2.75,2.1,7.54,3.12,14.89,4.91,21.7,5.27,6.8-.36,14.16-2.16,21.7-5.27,14.95-6.18,30.64-17.54,44.17-33.11,29.95-34.43,38.09-76.37,18.17-93.66"/>
    </g>
    <polygon class="st14" points="292.76 177.04 309.09 177.04 309.09 145.99 337.18 145.99 337.18 132.84 309.09 132.84 309.09 116.52 346.61 116.52 346.61 102.85 292.76 102.85 292.76 177.04"/>
    <polygon class="st14" points="430.02 177.04 483.87 177.04 483.87 163.37 446.34 163.37 446.34 145.99 474.43 145.99 474.43 132.84 446.34 132.84 446.34 116.52 483.87 116.52 483.87 102.85 430.02 102.85 430.02 177.04"/>
    <polygon class="st14" points="496.48 177.04 550.32 177.04 550.32 163.37 512.8 163.37 512.8 145.99 540.89 145.99 540.89 132.84 512.8 132.84 512.8 116.52 550.32 116.52 550.32 102.85 496.48 102.85 496.48 177.04"/>
    <path class="st14" d="M374.06,116.52h15.26c3.74,0,6.52.88,8.32,2.65,1.8,1.77,2.7,4.17,2.7,7.21,0,2.05-.41,3.84-1.22,5.35-.81,1.52-2.03,2.67-3.66,3.44-1.63.78-3.71,1.17-6.25,1.17h-15.16v-19.82ZM402.25,148c3.39-1.34,6.18-3.16,8.37-5.46,2.19-2.29,3.82-4.84,4.88-7.63,1.06-2.79,1.59-5.64,1.59-8.53,0-4.24-1.01-8.14-3.02-11.71-2.02-3.57-5.02-6.43-9.01-8.59-3.99-2.15-8.99-3.23-15-3.23h-32.33v74.2h16.32v-27.03h10.51l15.67,27.03h18.23l-17.44-28.64c.41-.14.84-.25,1.23-.4"/>
    <polygon class="st14" points="750.15 102.85 732.67 135.28 715.07 102.85 696.42 102.85 724.4 151.92 724.4 177.04 740.72 177.04 740.72 151.82 768.81 102.85 750.15 102.85"/>
    <g>
      <path class="st14" d="M821.56,152.29c-1.84,3.57-4.35,6.38-7.53,8.43-3.18,2.05-6.89,3.07-11.13,3.07s-7.86-1.02-11.08-3.07c-3.22-2.05-5.72-4.86-7.53-8.43-1.8-3.57-2.7-7.68-2.7-12.35s.9-8.89,2.7-12.45c1.8-3.57,4.31-6.36,7.53-8.37,3.21-2.01,6.91-3.02,11.08-3.02s7.95,1.01,11.13,3.02c3.18,2.01,5.69,4.81,7.53,8.37,1.84,3.57,2.76,7.72,2.76,12.45s-.92,8.78-2.76,12.35M829.83,112.65c-3.46-3.36-7.49-5.95-12.08-7.79-4.59-1.84-9.54-2.76-14.84-2.76s-10.14.92-14.73,2.76c-4.59,1.84-8.62,4.43-12.08,7.79-3.46,3.36-6.18,7.35-8.16,11.98-1.98,4.63-2.97,9.74-2.97,15.32s.99,10.69,2.97,15.32c1.98,4.63,4.7,8.62,8.16,11.98,3.46,3.36,7.49,5.95,12.08,7.79,4.59,1.84,9.5,2.76,14.73,2.76s10.24-.92,14.84-2.76c4.59-1.84,8.62-4.43,12.08-7.79,3.46-3.35,6.18-7.35,8.16-11.98,1.98-4.63,2.97-9.73,2.97-15.32s-.99-10.69-2.97-15.32c-1.98-4.63-4.7-8.62-8.16-11.98"/>
      <path class="st14" d="M584.06,121.29c0-2.61.67-4.5,2.01-5.67,1.34-1.17,3.43-1.54,6.25-1.11v-13.78c-5.09-.64-9.4-.32-12.93.95-3.53,1.27-6.24,3.41-8.11,6.41-1.87,3-2.81,7.01-2.81,12.03v3.92h-6.04v13.67h6.04v39.32h15.58v-39.32h8.8v-13.67h-8.8v-2.76Z"/>
      <path class="st14" d="M897.74,102.85v46.32c0,3.18-.64,5.87-1.91,8.06-1.27,2.19-3.06,3.83-5.35,4.93-2.3,1.1-4.97,1.64-8,1.64s-5.48-.55-7.74-1.64c-2.26-1.09-4.03-2.74-5.3-4.93-1.27-2.19-1.91-4.88-1.91-8.06v-46.32h-16.43v45.05c0,6.72,1.43,12.28,4.29,16.69,2.86,4.42,6.64,7.72,11.34,9.91,4.7,2.19,9.87,3.29,15.53,3.29,4.1,0,8.07-.62,11.92-1.86,3.85-1.24,7.28-3.09,10.28-5.57,3-2.47,5.37-5.56,7.1-9.27,1.73-3.71,2.6-8.11,2.6-13.2v-45.05h-16.43Z"/>
      <path class="st14" d="M687.3,123.99c-2.33.46-4.42,1.29-6.25,2.49-1.84,1.2-3.43,2.72-4.77,4.56l-1.06-7h-14.1v53h15.48v-23c0-3.53.58-6.41,1.75-8.64,1.17-2.23,2.7-3.92,4.61-5.09s3.92-1.87,6.04-2.12c2.12-.25,4.1-.09,5.93.48v-14.63c-2.76-.49-5.3-.51-7.63-.05"/>
      <path class="st14" d="M633.93,157.91c-1.1,1.94-2.47,3.41-4.13,4.4-1.66.99-3.41,1.48-5.25,1.48s-3.57-.49-5.19-1.48c-1.63-.99-2.88-2.47-3.76-4.45-.89-1.98-1.33-4.42-1.33-7.31s.46-5.42,1.38-7.37c.92-1.94,2.19-3.41,3.82-4.4,1.62-.99,3.39-1.49,5.3-1.49s3.67.5,5.3,1.49c1.62.99,2.95,2.47,3.98,4.45,1.02,1.98,1.54,4.42,1.54,7.31s-.55,5.42-1.64,7.37M638.76,126.64c-4.1-2.23-8.76-3.34-13.99-3.34s-9.79,1.11-13.89,3.34c-4.1,2.22-7.35,5.37-9.75,9.43-2.4,4.06-3.6,8.89-3.6,14.47s1.17,10.42,3.5,14.52c2.33,4.1,5.55,7.24,9.65,9.43,4.1,2.19,8.73,3.29,13.89,3.29s9.82-1.1,13.99-3.29c4.17-2.19,7.47-5.33,9.91-9.43,2.44-4.1,3.66-8.94,3.66-14.52s-1.2-10.4-3.6-14.47c-2.41-4.06-5.66-7.21-9.75-9.43"/>
    </g>
  </g>
  
  <rect class="st0" width="984.41" height="279.98"/>
</svg>