<?xml version="1.0" encoding="UTF-8"?>
<svg id="Vrstva_1" data-name="Vrstva 1" xmlns="http://www.w3.org/2000/svg" viewBox="0 0 1499.04 1101.35">
  <defs>
    <style>
      .cls-1 {
        fill: #45e7a3;
      }

      .cls-2 {
        fill: #224571;
      }

      .cls-3 {
        fill: #31c587;
      }
    </style>
  </defs>
  <path class="cls-3" d="M700,303.61c16.14-18.55,32.68-36.33,49.52-53.34C519.73,18,232.63-68.51,86.1,58.78-71.17,195.38-6.96,526.49,229.51,798.31c106.88,122.86,230.65,212.57,348.74,261.4-7.52-5.07-14.75-10.57-21.67-16.57-157.27-136.61-93.07-467.71,143.41-739.53"/>
  <path class="cls-1" d="M1412.94,58.77c-146.53-127.28-433.63-40.78-663.42,191.49-16.84,17.01-33.38,34.79-49.52,53.34-236.48,271.83-300.68,602.93-143.41,739.54,6.91,6,14.15,11.5,21.67,16.56,59.5,24.6,117.54,38.8,171.26,41.64,53.72-2.84,111.76-17.04,171.26-41.64,118.09-48.83,241.86-138.55,348.74-261.4,236.47-271.83,300.68-602.93,143.41-739.53"/>
  <g>
    <path class="cls-2" d="M324.61,561.61v-253.47h169.71v47.91h-112.65v53.03h100.22v47.91h-100.22v104.61h-57.05Z"/>
    <path class="cls-2" d="M608.79,305.22c38.04,0,67.18,6.76,87.42,20.3,20.23,13.53,30.35,34.56,30.35,63.09,0,17.8-4.08,32.25-12.25,43.34-8.17,11.1-19.93,19.81-35.29,26.15,5.12,6.34,10.48,13.6,16.09,21.76,5.61,8.17,11.16,16.71,16.64,25.61,5.49,8.9,10.79,18.17,15.91,27.8,5.12,9.63,9.88,19.08,14.26,28.35h-63.78c-4.65-8.29-9.37-16.7-14.14-25.24-4.78-8.53-9.66-16.82-14.68-24.87-5.02-8.05-9.98-15.66-14.87-22.86-4.89-7.19-9.79-13.72-14.68-19.57h-28.17v92.54h-57.05v-249.81c12.44-2.43,25.29-4.14,38.58-5.12,13.29-.97,25.18-1.46,35.66-1.46ZM612.09,353.87c-4.15,0-7.86.12-11.16.37-3.29.25-6.4.49-9.33.73v68.76h16.1c21.45,0,36.81-2.68,46.08-8.04,9.27-5.36,13.9-14.5,13.9-27.43s-4.7-21.27-14.08-26.52c-9.39-5.24-23.22-7.87-41.51-7.87Z"/>
    <path class="cls-2" d="M778.5,561.61v-253.47h171.17v47.91h-114.12v49.74h101.31v46.82h-101.31v61.08h122.53v47.91h-179.58Z"/>
    <path class="cls-2" d="M1000.14,561.61v-253.47h171.17v47.91h-114.11v49.74h101.31v46.82h-101.31v61.08h122.53v47.91h-179.58Z"/>
    <path class="cls-2" d="M376.6,597.78c7.03,0,13.47.72,19.33,2.14,5.86,1.42,10.38,2.81,13.56,4.14l-7.28,29.87c-3.35-1.51-6.99-2.64-10.92-3.39-3.93-.75-7.58-1.13-10.92-1.13-4.52,0-8.33.63-11.42,1.88-3.1,1.26-5.52,2.97-7.28,5.15-1.76,2.18-3.01,4.77-3.76,7.78-.76,3.01-1.13,6.28-1.13,9.79v6.53h46.19v31.13h-46.19v100.93h-37.41v-139.09c0-17.07,4.81-30.63,14.44-40.67,9.62-10.04,23.89-15.06,42.81-15.06Z"/>
    <path class="cls-2" d="M546.82,726.33c0,10.38-1.51,19.88-4.52,28.5-3.01,8.62-7.37,15.99-13.06,22.09-5.69,6.11-12.52,10.84-20.46,14.18-7.95,3.35-16.86,5.02-26.74,5.02s-18.54-1.67-26.49-5.02c-7.95-3.35-14.77-8.07-20.46-14.18-5.69-6.11-10.13-13.47-13.31-22.09-3.18-8.62-4.77-18.12-4.77-28.5s1.63-19.84,4.9-28.37c3.26-8.54,7.78-15.82,13.55-21.84,5.77-6.03,12.64-10.71,20.59-14.06,7.95-3.35,16.61-5.02,25.99-5.02s18.28,1.67,26.23,5.02c7.95,3.35,14.77,8.03,20.46,14.06,5.69,6.03,10.12,13.31,13.31,21.84,3.18,8.54,4.77,17.99,4.77,28.37ZM508.66,726.33c0-11.55-2.3-20.63-6.91-27.24-4.6-6.61-11.17-9.92-19.71-9.92s-15.15,3.31-19.84,9.92c-4.69,6.61-7.03,15.69-7.03,27.24s2.34,20.71,7.03,27.49c4.68,6.78,11.3,10.17,19.84,10.17s15.1-3.39,19.71-10.17,6.91-15.94,6.91-27.49Z"/>
    <path class="cls-2" d="M655.28,693.69c-3.35-.83-7.28-1.71-11.8-2.63-4.52-.92-9.38-1.38-14.56-1.38-2.34,0-5.14.21-8.41.63-3.26.42-5.74.88-7.41,1.38v100.93h-37.41v-125.03c6.69-2.34,14.6-4.56,23.72-6.65,9.12-2.09,19.29-3.14,30.51-3.14,2.01,0,4.43.13,7.28.38,2.85.25,5.69.59,8.54,1,2.84.42,5.69.92,8.54,1.51,2.84.59,5.27,1.3,7.28,2.13l-6.28,30.88Z"/>
    <path class="cls-2" d="M747.87,689.98c7.04-11.85,13.74-23.7,20.11-35.55,6.37-11.85,12.23-23.79,17.6-35.81h43.18c-9.54,18.74-19.42,36.91-29.62,54.48-10.21,17.57-21.01,35.23-32.39,52.97v66.53h-39.16v-66.03c-11.38-17.74-22.22-35.48-32.51-53.22-10.29-17.74-20.21-35.99-29.75-54.73h45.44c5.35,12.02,11.11,23.96,17.3,35.81,6.18,11.85,12.79,23.7,19.81,35.55Z"/>
    <path class="cls-2" d="M1004.5,705.49c0,14.9-2.22,27.99-6.65,39.29-4.44,11.3-10.5,20.75-18.2,28.37-7.7,7.62-16.86,13.35-27.49,17.2-10.63,3.85-22.06,5.77-34.27,5.77s-23.1-1.93-33.64-5.77c-10.54-3.85-19.75-9.58-27.62-17.2-7.87-7.61-14.06-17.07-18.58-28.37-4.52-11.3-6.78-24.39-6.78-39.29s2.34-27.99,7.03-39.29c4.68-11.3,11-20.79,18.95-28.5,7.95-7.7,17.16-13.47,27.62-17.32,10.46-3.85,21.47-5.77,33.02-5.77s23.1,1.93,33.64,5.77c10.55,3.85,19.75,9.63,27.62,17.32,7.86,7.7,14.06,17.2,18.58,28.5,4.52,11.3,6.78,24.4,6.78,39.29ZM871.69,705.49c0,8.54,1.04,16.24,3.14,23.1,2.09,6.86,5.1,12.76,9.04,17.7,3.93,4.94,8.74,8.75,14.44,11.42,5.69,2.68,12.22,4.02,19.58,4.02s13.68-1.34,19.46-4.02c5.77-2.67,10.63-6.48,14.56-11.42,3.93-4.94,6.94-10.84,9.04-17.7,2.09-6.86,3.14-14.56,3.14-23.1s-1.04-16.27-3.14-23.22c-2.1-6.94-5.11-12.89-9.04-17.83-3.94-4.94-8.79-8.74-14.56-11.42-5.77-2.68-12.26-4.02-19.46-4.02s-13.9,1.38-19.58,4.14c-5.69,2.76-10.51,6.61-14.44,11.55-3.94,4.94-6.95,10.88-9.04,17.83-2.09,6.95-3.14,14.61-3.14,22.97Z"/>
    <path class="cls-2" d="M1105.18,796.12c-12.22,0-22.76-1.72-31.63-5.15-8.87-3.43-16.19-8.2-21.97-14.31-5.77-6.11-10.04-13.39-12.8-21.84-2.76-8.45-4.14-17.78-4.14-27.99v-108.21h39.17v104.94c0,7.03.79,13.02,2.38,17.95,1.59,4.94,3.76,8.95,6.53,12.05,2.76,3.1,6.11,5.32,10.04,6.65,3.93,1.34,8.24,2.01,12.93,2.01,9.54,0,17.28-2.93,23.22-8.79,5.94-5.85,8.91-15.82,8.91-29.87v-104.94h39.16v108.21c0,10.21-1.42,19.58-4.27,28.12-2.85,8.54-7.2,15.86-13.05,21.97-5.86,6.11-13.31,10.84-22.35,14.18-9.04,3.35-19.75,5.02-32.14,5.02Z"/>
  </g>
</svg>